<?xml version="1.0" encoding="utf-8"?>
<!-- Generator: Adobe Illustrator 26.0.2, SVG Export Plug-In . SVG Version: 6.00 Build 0)  -->
<svg version="1.1" id="award" xmlns="http://www.w3.org/2000/svg" xmlns:xlink="http://www.w3.org/1999/xlink" x="0px"
	 y="0px" viewBox="0 0 150 150" style="enable-background:new 0 0 150 150;" xml:space="preserve">
<style type="text/css">
	.st0{fill:url(#SVGID_1_);stroke:#082B99;stroke-width:0.9965;stroke-miterlimit:10;}
	.st1{fill:#F9D438;}
	.st2{fill:url(#SVGID_00000126298391224953809340000010653802560475592630_);}
	.st3{fill:#998533;}
	.st4{fill:url(#SVGID_00000100347003794943397090000017950468501465123235_);}
	.st5{fill:url(#SVGID_00000005232726575824195320000013530476213107520131_);}
	.st6{fill:url(#SVGID_00000164515261735494974380000011276252343672049590_);}
	.st7{fill:url(#SVGID_00000013158393679347624170000000947236766195089594_);}
	.st8{fill:url(#SVGID_00000147927373690119288940000007046615107685703838_);}
	.st9{fill:url(#SVGID_00000060725001334111185260000013347653838342004651_);}
	.st10{fill:url(#SVGID_00000030464585488604704690000010098739975163601552_);}
	.st11{fill:url(#SVGID_00000115487314256842962370000012658177579545657483_);}
	.st12{fill:url(#SVGID_00000098208361331968347900000012510014402501072512_);}
	.st13{fill:url(#SVGID_00000058565599203761122120000015288253096420346003_);}
	.st14{fill:url(#SVGID_00000067227647144724768030000000157193543498828445_);stroke:#998533;stroke-miterlimit:10;}
	.st15{fill:url(#SVGID_00000015348812851999917020000012829974811768771006_);}
	.st16{fill:#FFFFFF;stroke:#000000;stroke-width:0.2;stroke-miterlimit:10;}
	.st17{fill:url(#SVGID_00000114765722056148399030000003011383186815493540_);}
	.st18{fill:#96843B;stroke:#96843B;stroke-width:0.2;stroke-miterlimit:10;}
	.st19{fill:#C1AD56;}
	.st20{fill:url(#SVGID_00000018238070120657501950000015417961545625302709_);}
	.st21{fill:url(#SVGID_00000111149797043928794840000004514014085317720245_);}
	.st22{fill:url(#SVGID_00000094611048138693417150000009165850574039491515_);}
	.st23{fill:url(#SVGID_00000046326558145390990240000003777086092514099887_);}
	.st24{fill:url(#SVGID_00000106845775670016547560000012752904282540974493_);}

		.st25{fill:url(#SVGID_00000036211210388463065910000011545007745625021114_);stroke:#96843B;stroke-width:1.4;stroke-miterlimit:10;}

		.st26{fill:url(#SVGID_00000018922065112689607010000014165703606213029270_);stroke:#96843B;stroke-width:1.4;stroke-miterlimit:10;}
	.st27{fill:#FAE64D;stroke:#000000;stroke-width:0.2;stroke-miterlimit:10;}
	.st28{fill:#FFFFFF;stroke:#000000;stroke-width:1.5;stroke-miterlimit:10;}
	.st29{fill:#FFFFFF;}
	.st30{clip-path:url(#SVGID_00000158007680811408408920000007453750053131703944_);}
	.st31{fill:url(#SVGID_00000081638489864851376370000008867192190902700206_);}
	.st32{fill:none;stroke:#000000;stroke-miterlimit:10;}
	.st33{clip-path:url(#SVGID_00000021817775093632115070000006244117237716515201_);}
	.st34{fill:url(#SVGID_00000080204781836329070460000005936770200103100850_);}
	.st35{clip-path:url(#SVGID_00000051368844400152208830000005690730398646238875_);}
	.st36{fill:url(#SVGID_00000178888505600445323670000000645510583277627562_);}
	.st37{clip-path:url(#SVGID_00000165211379655429623630000016708095249675482501_);}
	.st38{fill:url(#SVGID_00000174566528482490448200000001226965339311701427_);}
</style>
<linearGradient id="SVGID_1_" gradientUnits="userSpaceOnUse" x1="75.2" y1="-6782.0068" x2="75.2" y2="-6852.0068" gradientTransform="matrix(1 0 0 -1 0 -6784.7246)">
	<stop  offset="0" style="stop-color:#FFFFFF"/>
	<stop  offset="2.056000e-02" style="stop-color:#D3D9F0"/>
	<stop  offset="4.337000e-02" style="stop-color:#AAB6E3"/>
	<stop  offset="6.899000e-02" style="stop-color:#8495D6"/>
	<stop  offset="9.688000e-02" style="stop-color:#6479CC"/>
	<stop  offset="0.1277" style="stop-color:#4862C3"/>
	<stop  offset="0.1625" style="stop-color:#324FBB"/>
	<stop  offset="0.2031" style="stop-color:#2141B6"/>
	<stop  offset="0.2533" style="stop-color:#1636B2"/>
	<stop  offset="0.3238" style="stop-color:#0F31B0"/>
	<stop  offset="0.5194" style="stop-color:#0D2FAF"/>
</linearGradient>
<path class="st0" d="M108.3,0.4H42.1c-1-0.1-1.8,0.7-1.9,1.7V19c0,0.7,0.3,1.3,0.8,1.8l23.3,20.7l9.4,8.3c0.4,0.4,1,0.6,1.6,0.6l0,0
	c0.6,0,1.2-0.2,1.6-0.6l8.8-7.9l23.7-21.1c0.5-0.5,0.8-1.1,0.8-1.8V2.1C110.1,1.1,109.3,0.4,108.3,0.4z"/>
<polygon class="st1" points="49.6,1 49.6,27.9 60.8,37.7 60.8,1 "/>
<polygon class="st1" points="89.6,1 89.6,37.7 100.8,27.9 100.8,1 "/>
<polygon class="st1" points="69.6,1 69.6,45.4 74.3,49.5 76.1,49.5 80.8,45.4 80.8,1 "/>
<linearGradient id="SVGID_00000000901678054856733900000013234058298851154851_" gradientUnits="userSpaceOnUse" x1="1256.5051" y1="-4992.167" x2="1380.5107" y2="-4992.167" gradientTransform="matrix(0.9242 0.382 0.382 -0.9242 763.4762 -5037.3755)">
	<stop  offset="0" style="stop-color:#EEE7CF"/>
	<stop  offset="1" style="stop-color:#DBCD94"/>
</linearGradient>
<path style="fill:url(#SVGID_00000000901678054856733900000013234058298851154851_);" d="M75,146.7c-0.6,0-1.2-0.1-1.7-0.3
	l-44.1-18.2c-1.1-0.4-1.9-1.3-2.4-2.4l-18.3-44c-0.5-1.1-0.5-2.3,0-3.4l18.2-44.1c0.4-1.1,1.3-1.9,2.4-2.4l44-18.3
	c1.1-0.4,2.3-0.4,3.4,0l44.1,18.2c1.1,0.4,1.9,1.3,2.4,2.4l18.3,44c0.4,1.1,0.4,2.3,0,3.4l-18.2,44.1c-0.4,1.1-1.3,1.9-2.4,2.4
	l-44,18.3C76.2,146.6,75.6,146.7,75,146.7z"/>
<path class="st3" d="M75,14c0.5,0,1,0.1,1.4,0.3l44.1,18.2c0.9,0.4,1.6,1.1,2,2l18.3,44c0.4,0.9,0.4,1.9,0,2.8l-18.2,44.1
	c-0.4,0.9-1.1,1.6-2,2l-44,18.3c-0.9,0.4-1.9,0.4-2.8,0l-44.1-18.2c-0.9-0.4-1.6-1.1-2-2l-18.3-44c-0.4-0.9-0.4-1.9,0-2.8l18.2-44.1
	c0.4-0.9,1.1-1.6,2-2l44-18.3C74,14.1,74.5,14,75,14 M75,12.6c-0.7,0-1.3,0.1-2,0.4L29,31.3c-1.3,0.5-2.3,1.5-2.8,2.8L8,78.1
	c-0.5,1.3-0.5,2.7,0,3.9l18.3,44c0.5,1.3,1.5,2.3,2.8,2.8l44,18.2c1.3,0.5,2.7,0.5,3.9,0l44-18.3c1.3-0.5,2.3-1.5,2.8-2.8l18.2-44
	c0.5-1.3,0.5-2.7,0-3.9l-18.3-44c-0.5-1.3-1.5-2.3-2.8-2.8L76.9,13C76.3,12.7,75.6,12.6,75,12.6L75,12.6z"/>
<linearGradient id="SVGID_00000067915896552319024700000014385476009304198801_" gradientUnits="userSpaceOnUse" x1="87.0218" y1="-6826.3589" x2="43.8212" y2="-6844.5791" gradientTransform="matrix(1 0 0 -1 0 -6784.7246)">
	<stop  offset="0" style="stop-color:#FCECC0"/>
	<stop  offset="1" style="stop-color:#F9E1A5"/>
</linearGradient>
<path style="fill:url(#SVGID_00000067915896552319024700000014385476009304198801_);" d="M75,80V14c-0.5,0-1,0.1-1.5,0.3l-44,18.3
	c-0.5,0.2-1,0.6-1.4,1L74.5,80H75z"/>
<linearGradient id="SVGID_00000003815828457238579430000007302647765197491608_" gradientUnits="userSpaceOnUse" x1="75.005" y1="-6864.8745" x2="75.3624" y2="-6864.8745" gradientTransform="matrix(1 0 0 -1 0 -6784.7246)">
	<stop  offset="0" style="stop-color:#EEE7CF"/>
	<stop  offset="1" style="stop-color:#DBCD94"/>
</linearGradient>
<polygon style="fill:url(#SVGID_00000003815828457238579430000007302647765197491608_);" points="75,80.3 75.4,80 75,80 "/>
<linearGradient id="SVGID_00000013153945501446573190000002933051233764515972_" gradientUnits="userSpaceOnUse" x1="110.7733" y1="-6847.584" x2="69.0355" y2="-6826.3711" gradientTransform="matrix(1 0 0 -1 0 -6784.7246)">
	<stop  offset="0" style="stop-color:#F9DF9B"/>
	<stop  offset="1" style="stop-color:#CEBE7C"/>
</linearGradient>
<path style="fill:url(#SVGID_00000013153945501446573190000002933051233764515972_);" d="M75.4,80l46.5-46.5c-0.4-0.5-0.9-0.8-1.4-1
	L76.4,14.3C75.9,14.1,75.5,14,75,14v66H75.4z"/>
<linearGradient id="SVGID_00000131354759652889197500000005160744297385653934_" gradientUnits="userSpaceOnUse" x1="75" y1="-6865.1245" x2="75" y2="-6865.1245" gradientTransform="matrix(1 0 0 -1 0 -6784.7246)">
	<stop  offset="0" style="stop-color:#EEE7CF"/>
	<stop  offset="1" style="stop-color:#DBCD94"/>
</linearGradient>
<path style="fill:url(#SVGID_00000131354759652889197500000005160744297385653934_);" d="M75,80.4L75,80.4L75,80.4z"/>
<linearGradient id="SVGID_00000164509299490650575040000009203713174022579112_" gradientUnits="userSpaceOnUse" x1="74.549" y1="-6864.9248" x2="75.005" y2="-6864.9248" gradientTransform="matrix(1 0 0 -1 0 -6784.7246)">
	<stop  offset="0" style="stop-color:#EEE7CF"/>
	<stop  offset="1" style="stop-color:#DBCD94"/>
</linearGradient>
<polygon style="fill:url(#SVGID_00000164509299490650575040000009203713174022579112_);" points="74.5,80 75,80.4 75,80.3 75,80 "/>
<linearGradient id="SVGID_00000181060606247508556040000011004973734996249496_" gradientUnits="userSpaceOnUse" x1="137.1658" y1="-6885.4229" x2="93.8817" y2="-6836.0977" gradientTransform="matrix(1 0 0 -1 0 -6784.7246)">
	<stop  offset="0" style="stop-color:#EEE7CF"/>
	<stop  offset="1" style="stop-color:#DDC76C"/>
</linearGradient>
<path style="fill:url(#SVGID_00000181060606247508556040000011004973734996249496_);" d="M141,80c0-0.5-0.1-1-0.3-1.5l-18.3-44
	c-0.2-0.4-0.4-0.7-0.6-1L75.4,80H141z"/>
<linearGradient id="SVGID_00000142168247605628828890000015986645159603742087_" gradientUnits="userSpaceOnUse" x1="75" y1="-6897.9248" x2="121.4" y2="-6897.9248" gradientTransform="matrix(1 0 0 -1 0 -6784.7246)">
	<stop  offset="0" style="stop-color:#EEE7CF"/>
	<stop  offset="1" style="stop-color:#DBCD94"/>
</linearGradient>
<path style="fill:url(#SVGID_00000142168247605628828890000015986645159603742087_);" d="M75,146c0.5,0,1-0.1,1.5-0.3l44-18.3
	c0.3-0.1,0.6-0.3,0.9-0.6L75,80.4V146z"/>
<linearGradient id="SVGID_00000119813303099916123580000004110955042026848189_" gradientUnits="userSpaceOnUse" x1="23.0568" y1="-6886.104" x2="58.1479" y2="-6830.7334" gradientTransform="matrix(1 0 0 -1 0 -6784.7246)">
	<stop  offset="0" style="stop-color:#F9DF9B"/>
	<stop  offset="0.7663" style="stop-color:#CEBE7C"/>
</linearGradient>
<path style="fill:url(#SVGID_00000119813303099916123580000004110955042026848189_);" d="M28.1,33.6c-0.3,0.3-0.5,0.6-0.6,1
	l-18.2,44C9.1,79,9,79.5,9,80h65.6L28.1,33.6z"/>
<path d="M104.1,90.3c2.6,0,4.5,1.9,4.5,5.5c0.2,2.9-1.9,5.4-4.8,5.6c-0.2,0-0.3,0-0.5,0c-3.2,0-5.5-2.3-5.5-8.1c0-5.9,2.4-10,6.6-10
	c2.7,0,3.9,1.3,3.9,2.3c0,0.8-0.4,1.2-1.1,1.2c-0.6,0-1.1-0.5-1.1-1.1c0-0.1,0-0.1,0-0.2c0-0.9-0.8-1.6-2.3-1.6
	c-2.5,0-4.4,3.2-4.4,8.8C100.3,91.4,102.1,90.3,104.1,90.3z M103.2,100.9c2.6,0,3.8-1.9,3.8-5.4c0-2.6-1.3-4.5-3.5-4.5
	c-1.9,0-3.5,1.7-4.3,3.1C99.2,99.8,101.1,100.9,103.2,100.9L103.2,100.9z"/>
<linearGradient id="SVGID_00000160869894512938178200000018171171020886915460_" gradientUnits="userSpaceOnUse" x1="28.5225" y1="-6897.9248" x2="75.0225" y2="-6897.9248" gradientTransform="matrix(1 0 0 -1 0 -6784.7246)">
	<stop  offset="0" style="stop-color:#EEE7CF"/>
	<stop  offset="1" style="stop-color:#DBCD94"/>
</linearGradient>
<path style="fill:url(#SVGID_00000160869894512938178200000018171171020886915460_);" d="M75,80.4l-46.4,46.4c0.3,0.3,0.7,0.5,1,0.7
	l44.1,18.2c0.4,0.2,0.9,0.3,1.4,0.3L75,80.4L75,80.4z"/>
<linearGradient id="SVGID_00000098213846469975423620000010970535211319504059_" gradientUnits="userSpaceOnUse" x1="9" y1="-6888.1245" x2="75" y2="-6888.1245" gradientTransform="matrix(1 0 0 -1 0 -6784.7246)">
	<stop  offset="0" style="stop-color:#EEE7CF"/>
	<stop  offset="1" style="stop-color:#DBCD94"/>
</linearGradient>
<path style="fill:url(#SVGID_00000098213846469975423620000010970535211319504059_);" d="M74.5,80H9c0,0.5,0.1,1,0.3,1.5l18.3,44
	c0.2,0.5,0.6,1,1,1.3L75,80.4L74.5,80z"/>
<linearGradient id="SVGID_00000046303669096768549620000012204059915817094056_" gradientUnits="userSpaceOnUse" x1="110.0754" y1="-6899.8999" x2="31.4504" y2="-6821.2749" gradientTransform="matrix(1 0 0 -1 0 -6784.7246)">
	<stop  offset="0" style="stop-color:#A08968"/>
	<stop  offset="1" style="stop-color:#FFFBE9"/>
</linearGradient>
<path style="fill:url(#SVGID_00000046303669096768549620000012204059915817094056_);stroke:#998533;stroke-miterlimit:10;" d="
	M73.2,24.8l-36,14.9c-1.2,0.5-2.1,1.4-2.6,2.6l-14.9,36c-0.5,1.2-0.5,2.5,0,3.6l14.9,35.9c0.5,1.2,1.4,2.1,2.6,2.6l36,14.9
	c1.2,0.5,2.5,0.5,3.6,0l35.9-14.9c1.2-0.5,2.1-1.4,2.6-2.6l14.9-36c0.5-1.2,0.5-2.5,0-3.6l-14.9-35.9c-0.5-1.2-1.4-2.1-2.6-2.6
	l-36-14.9C75.6,24.3,74.3,24.3,73.2,24.8z"/>
<linearGradient id="SVGID_00000088823514077410365880000013623197727017117087_" gradientUnits="userSpaceOnUse" x1="38.8551" y1="-6828.3662" x2="111.5918" y2="-6901.3306" gradientTransform="matrix(1 0 0 -1 0 -6784.7246)">
	<stop  offset="0" style="stop-color:#333333"/>
	<stop  offset="1" style="stop-color:#111111"/>
</linearGradient>
<path style="fill:url(#SVGID_00000088823514077410365880000013623197727017117087_);" d="M72.7,28.9L40.5,42.3
	c-1.5,0.6-2.6,1.8-3.3,3.3L24,77.7c-0.6,1.5-0.6,3.1,0,4.6l13.3,32.2c0.6,1.5,1.8,2.6,3.3,3.3l32.2,13.3c1.5,0.6,3.1,0.6,4.6,0
	l32.2-13.3c1.5-0.6,2.6-1.8,3.3-3.3l13.3-32.2c0.6-1.5,0.6-3.1,0-4.6l-13.3-32.2c-0.6-1.5-1.8-2.6-3.3-3.3L77.3,28.9
	C75.8,28.3,74.1,28.3,72.7,28.9z"/>
<linearGradient id="SVGID_00000073700911078858588550000001249684450356708797_" gradientUnits="userSpaceOnUse" x1="-3853.7803" y1="-10586.9922" x2="-3888.8743" y2="-10600.3916" gradientTransform="matrix(0.7891 -0.6143 -0.6143 -0.7891 -3317.6064 -10646.3945)">
	<stop  offset="0" style="stop-color:#FCECC0"/>
	<stop  offset="1" style="stop-color:#D3A759"/>
</linearGradient>
<path style="fill:url(#SVGID_00000073700911078858588550000001249684450356708797_);" d="M139.9,99.8c-5.8,10.3-16,12.6-17,11.5
	c-0.8-1-0.8-12.9,4.1-22.6c5-9.7,13.8-14.7,15.2-13.6C144.2,76.3,145.7,89.4,139.9,99.8z"/>
<path class="st18" d="M135.1,106.5c-5.3,4.8-11.5,6.2-12.5,5s-0.8-13.4,4-23.1c1.8-3.6,4.3-6.8,7.3-9.5c3.6-3.3,7.4-5.2,8.6-4.3
	c2.4,1.5,3.5,15.2-2.1,25.3C138.9,102.4,137.1,104.6,135.1,106.5z M134.4,79.7c-2.9,2.6-5.3,5.8-7.1,9.2c-4.8,9.4-4.8,21.1-4.2,22.1
	c0.6,0.5,6-0.4,11.3-5.1c2-1.8,3.7-4,5-6.3c5.9-10.4,4-23.1,2.4-24.1C141.4,75,138.2,76.2,134.4,79.7L134.4,79.7z"/>
<path class="st19" d="M127.8,106.2c1.1-7.4,4.1-14.3,8.9-20"/>
<linearGradient id="SVGID_00000138558342408609461390000011018997874126622874_" gradientUnits="userSpaceOnUse" x1="-1523.5703" y1="-8901.0303" x2="-1563.1173" y2="-8918.3389" gradientTransform="matrix(0.939 -0.344 -0.344 -0.939 -1489.9835 -8785.2734)">
	<stop  offset="0" style="stop-color:#EEE7CF"/>
	<stop  offset="1" style="stop-color:#DDB05F"/>
</linearGradient>
<path style="fill:url(#SVGID_00000138558342408609461390000011018997874126622874_);" d="M126.6,124.3c-10,9.3-22,8.2-22.7,6.6
	c-0.5-1.4,3.7-14.4,12.4-23.3c8.8-8.9,20.2-11.2,21.4-9.6C139.5,100.2,136.7,115.1,126.6,124.3z"/>
<path class="st18" d="M119,130.1c-7.5,3.4-14.7,2.8-15.5,1.1c-0.6-1.7,3.8-15,12.5-23.8c3.3-3.3,7.1-5.9,11.3-7.8
	c5.1-2.3,9.9-3.1,10.9-1.7c2.1,2.5-1.5,17.9-11.2,26.9C124.6,126.9,121.9,128.7,119,130.1z M127.7,100.4c-4.1,1.9-7.8,4.5-11,7.6
	c-8.5,8.6-12.7,21.4-12.3,22.7c0.5,0.7,6.7,1.7,14.1-1.7c2.8-1.3,5.5-3,7.7-5.2c10.1-9.3,12.5-23.8,11.1-25.5
	C136.9,97.8,133.1,98,127.7,100.4z"/>
<path class="st19" d="M108.9,127.5c5.9-7.9,13.1-14.7,21.2-20.3"/>
<path class="st19" d="M127.3,118.1c-4.9-0.1-9.7,1.3-13.7,4.1"/>
<linearGradient id="SVGID_00000103985980221785497610000011678749338170767264_" gradientUnits="userSpaceOnUse" x1="531.1404" y1="-6071.377" x2="490.5693" y2="-6095.8716" gradientTransform="matrix(0.9923 0.1238 0.1238 -0.9923 348.1672 -5968.1362)">
	<stop  offset="0" style="stop-color:#FFF0CC"/>
	<stop  offset="1" style="stop-color:#F9D895"/>
</linearGradient>
<path style="fill:url(#SVGID_00000103985980221785497610000011678749338170767264_);" d="M98.4,145c-14.4,4.4-25.5-2.9-25.4-4.9
	c0.2-1.7,11-13.1,24-17.7c13.2-4.6,25.3-1.1,25.7,1.2C123.3,126.6,112.9,140.6,98.4,145z"/>
<path class="st18" d="M88,146.9c-9-0.4-15.7-4.8-15.6-6.9c0.3-2.1,11.4-13.6,24.4-18.3c4.8-1.7,9.9-2.5,15-2.3
	c6.1,0.2,11.1,2,11.4,3.9c0.7,3.7-10.6,17.8-24.7,22.1C95.1,146.6,91.6,147.1,88,146.9z M111.8,120.7c-5-0.2-9.9,0.6-14.6,2.2
	c-12.7,4.5-23.3,15.7-23.6,17.2c0.1,1,5.6,5.3,14.6,5.6c3.4,0.1,6.9-0.3,10.2-1.4c14.6-4.4,24.4-18.3,23.9-20.7
	C122,122.8,118.2,121,111.8,120.7z"/>
<path class="st19" d="M82.5,139.1c9.6-5.3,20-9.1,30.7-11.4"/>
<path class="st19" d="M102.6,138.3c-4.4-2.2-9.3-3-14.2-2.2"/>
<path class="st19" d="M98.5,133.2c3-2,5.3-4.9,6.5-8.3"/>
<linearGradient id="SVGID_00000102513871406306837810000006195854871617650308_" gradientUnits="userSpaceOnUse" x1="-13270.6719" y1="-1685.1149" x2="-13305.7656" y2="-1698.5145" gradientTransform="matrix(-0.784 -0.6208 0.6208 -0.784 -9352.4463 -9484.54)">
	<stop  offset="0" style="stop-color:#FCECC0"/>
	<stop  offset="1" style="stop-color:#D3A759"/>
</linearGradient>
<path style="fill:url(#SVGID_00000102513871406306837810000006195854871617650308_);" d="M10.4,99.5c5.7,10.4,15.9,12.8,16.9,11.7
	c0.8-1,0.9-12.9-3.9-22.6c-4.8-9.8-13.6-14.9-15-13.9C6.3,76,4.7,89.1,10.4,99.5z"/>
<path class="st18" d="M10,99.7C4.4,89.6,5.7,75.9,8.1,74.4c1.2-0.8,5,1.1,8.5,4.4c2.9,2.7,5.4,6,7.2,9.6c4.8,9.7,4.8,21.9,3.9,23.1
	c-1.1,1.1-7.2-0.3-12.5-5.2C13.1,104.4,11.4,102.1,10,99.7z M8.6,75.1C7,76.1,5,88.8,10.8,99.2c1.3,2.4,3,4.5,5,6.4
	c5.2,4.8,10.7,5.7,11.2,5.2c0.7-1,0.7-12.7-4-22.2c-1.8-3.5-4.1-6.6-7-9.3C12.3,75.9,9.1,74.7,8.6,75.1z"/>
<path class="st19" d="M22.5,106c-1-7.4-4-14.3-8.7-20.1"/>
<linearGradient id="SVGID_00000025416969257742376040000010042843493602165646_" gradientUnits="userSpaceOnUse" x1="-13737.8564" y1="-4426.105" x2="-13777.4033" y2="-4443.4141" gradientTransform="matrix(-0.939 -0.344 0.344 -0.939 -11368.3408 -8785.2715)">
	<stop  offset="0" style="stop-color:#EEE7CF"/>
	<stop  offset="1" style="stop-color:#DDB05F"/>
</linearGradient>
<path style="fill:url(#SVGID_00000025416969257742376040000010042843493602165646_);" d="M23.7,124.1c10,9.3,22,8.2,22.7,6.6
	c0.5-1.4-3.7-14.4-12.4-23.3c-8.8-8.9-20.2-11.2-21.4-9.6C10.8,100,13.7,114.8,23.7,124.1z"/>
<path class="st18" d="M23.4,124.5c-9.7-9-13.3-24.4-11.2-26.9c1-1.4,5.8-0.6,10.9,1.7c4.2,1.9,8,4.6,11.3,7.8
	c8.7,8.9,13.1,22.2,12.5,23.8c-0.8,1.6-8,2.3-15.5-1.1C28.5,128.5,25.8,126.7,23.4,124.5z M13,98.2c-1.4,1.7,1.1,16.2,11.1,25.5
	c2.3,2.1,4.9,3.9,7.7,5.2c7.4,3.4,13.7,2.4,14.1,1.7c0.4-1.3-3.8-14.1-12.3-22.7c-3.2-3.2-6.9-5.8-11-7.6
	C17.3,97.7,13.4,97.6,13,98.2L13,98.2z"/>
<path class="st19" d="M41.4,127.3c-5.9-7.9-13.1-14.7-21.2-20.3"/>
<path class="st19" d="M23.1,117.9c4.9-0.1,9.7,1.3,13.7,4.1"/>
<linearGradient id="SVGID_00000137134090624821845410000005838750064903848848_" gradientUnits="userSpaceOnUse" x1="-12377.5781" y1="-7681.5469" x2="-12418.1484" y2="-7706.041" gradientTransform="matrix(-0.9923 0.1238 -0.1238 -0.9923 -13206.4932 -5968.1357)">
	<stop  offset="0" style="stop-color:#FFF0CC"/>
	<stop  offset="1" style="stop-color:#F9D895"/>
</linearGradient>
<path style="fill:url(#SVGID_00000137134090624821845410000005838750064903848848_);" d="M52,144.7c14.4,4.4,25.5-2.9,25.4-4.9
	c-0.2-1.7-11-13.1-24-17.7c-13.2-4.6-25.3-1.1-25.7,1.2C27,126.4,37.5,140.3,52,144.7z"/>
<path class="st18" d="M51.8,145.3c-14.1-4.3-25.5-18.4-24.7-22.1c0.3-1.9,5.3-3.7,11.4-3.9c5.1-0.2,10.2,0.6,15,2.3
	c13,4.7,24.2,16.2,24.4,18.3c0.1,2.1-6.6,6.5-15.6,6.9C58.8,146.8,55.2,146.4,51.8,145.3z M28.2,123.4c-0.5,2.5,9.4,16.3,23.9,20.7
	c3.3,1,6.7,1.5,10.2,1.4c8.9-0.4,14.5-4.6,14.6-5.6c-0.3-1.6-11-12.7-23.6-17.2c-4.7-1.6-9.6-2.4-14.6-2.2
	C32.1,120.7,28.3,122.5,28.2,123.4z"/>
<path class="st19" d="M68.8,138.9c-9.6-5.3-20-9.1-30.7-11.4"/>
<path class="st19" d="M48.7,138.1c4.4-2.2,9.3-3,14.2-2.2"/>
<path class="st19" d="M52.7,133c-3-2-5.3-4.9-6.5-8.3"/>
<linearGradient id="SVGID_00000012460537515712441840000018119552982984615813_" gradientUnits="userSpaceOnUse" x1="73.8788" y1="-6922.5991" x2="82.8886" y2="-6921.9521" gradientTransform="matrix(1 0 0 -1 0 -6784.7246)">
	<stop  offset="0" style="stop-color:#FCECC0"/>
	<stop  offset="1" style="stop-color:#F9E1A5"/>
</linearGradient>
<path style="fill:url(#SVGID_00000012460537515712441840000018119552982984615813_);stroke:#96843B;stroke-width:1.4;stroke-miterlimit:10;" d="
	M78.4,125.9L78.4,125.9c2.2,0,4,1.8,4,4v15.3c0,2.2-1.8,4-4,4l0,0c-2.2,0-4-1.8-4-4v-15.3C74.4,127.6,76.2,125.9,78.4,125.9z"/>
<linearGradient id="SVGID_00000171687957911933379820000013581340541905203856_" gradientUnits="userSpaceOnUse" x1="65.8749" y1="-6922.5991" x2="74.8847" y2="-6921.9521" gradientTransform="matrix(1 0 0 -1 0 -6784.7246)">
	<stop  offset="0" style="stop-color:#FCECC0"/>
	<stop  offset="1" style="stop-color:#F9E1A5"/>
</linearGradient>
<path style="fill:url(#SVGID_00000171687957911933379820000013581340541905203856_);stroke:#96843B;stroke-width:1.4;stroke-miterlimit:10;" d="
	M70.4,125.9L70.4,125.9c2.2,0,4,1.8,4,4v15.3c0,2.2-1.8,4-4,4l0,0c-2.2,0-4-1.8-4-4v-15.3C66.4,127.6,68.2,125.9,70.4,125.9z"/>
</svg>
